<?xml version="1.0" encoding="UTF-8" standalone="no"?>
<!-- Created with Inkscape (http://www.inkscape.org/) -->

<svg
   width="210mm"
   height="297mm"
   viewBox="0 0 210 297"
   version="1.1"
   id="svg1"
   inkscape:version="1.3.2 (091e20e, 2023-11-25)"
   sodipodi:docname="icons.svg"
   xmlns:inkscape="http://www.inkscape.org/namespaces/inkscape"
   xmlns:sodipodi="http://sodipodi.sourceforge.net/DTD/sodipodi-0.dtd"
   xmlns="http://www.w3.org/2000/svg"
   xmlns:svg="http://www.w3.org/2000/svg">
  <sodipodi:namedview
     id="namedview1"
     pagecolor="#ffffff"
     bordercolor="#000000"
     borderopacity="0.25"
     inkscape:showpageshadow="2"
     inkscape:pageopacity="0.0"
     inkscape:pagecheckerboard="0"
     inkscape:deskcolor="#d1d1d1"
     inkscape:document-units="mm"
     showguides="true"
     inkscape:zoom="0.72337262"
     inkscape:cx="379.47248"
     inkscape:cy="544.67088"
     inkscape:window-width="1896"
     inkscape:window-height="1016"
     inkscape:window-x="10"
     inkscape:window-y="30"
     inkscape:window-maximized="1"
     inkscape:current-layer="layer1">
    <sodipodi:guide
       position="15.814539,272.48626"
       orientation="0,-1"
       id="guide13"
       inkscape:locked="false" />
    <sodipodi:guide
       position="15.814022,289.8759"
       orientation="0,-1"
       id="guide14"
       inkscape:locked="false" />
    <inkscape:page
       x="0"
       y="0"
       width="210"
       height="297"
       id="page65"
       margin="0"
       bleed="0" />
  </sodipodi:namedview>
  <defs
     id="defs1">
    <inkscape:path-effect
       effect="fillet_chamfer"
       id="path-effect65"
       is_visible="true"
       lpeversion="1"
       nodesatellites_param="F,0,0,1,0,0,0,1 @ F,0,0,1,0,0,0,1 @ F,0,0,1,0,0.39538535,0,1 @ F,0,0,1,0,0,0,1 @ F,0,0,1,0,0.37858051,0,1 @ F,0,0,1,0,0,0,1 @ F,0,0,1,0,0,0,1 @ F,0,0,1,0,0,0,1 @ F,0,0,1,0,0,0,1 @ F,0,0,1,0,0,0,1"
       radius="0"
       unit="px"
       method="auto"
       mode="F"
       chamfer_steps="1"
       flexible="false"
       use_knot_distance="true"
       apply_no_radius="true"
       apply_with_radius="true"
       only_selected="false"
       hide_knots="false" />
    <inkscape:path-effect
       effect="fillet_chamfer"
       id="path-effect22"
       is_visible="true"
       lpeversion="1"
       nodesatellites_param="F,0,0,1,0,0,0,1 @ F,0,0,1,0,0,0,1 @ F,0,0,1,0,0.39538535,0,1 @ F,0,0,1,0,0,0,1 @ F,0,0,1,0,0.37858051,0,1 @ F,0,0,1,0,0,0,1 @ F,0,0,1,0,0,0,1 @ F,0,0,1,0,0,0,1 @ F,0,0,1,0,0,0,1 @ F,0,0,1,0,0,0,1"
       radius="0"
       unit="px"
       method="auto"
       mode="F"
       chamfer_steps="1"
       flexible="false"
       use_knot_distance="true"
       apply_no_radius="true"
       apply_with_radius="true"
       only_selected="false"
       hide_knots="false" />
    <inkscape:path-effect
       effect="fillet_chamfer"
       id="path-effect16"
       is_visible="true"
       lpeversion="1"
       nodesatellites_param="F,0,0,1,0,0,0,1 @ F,0,0,1,0,0,0,1 @ F,0,0,1,0,0.39538535,0,1 @ F,0,0,1,0,0,0,1 @ F,0,0,1,0,0.37858051,0,1 @ F,0,0,1,0,0,0,1 @ F,0,0,1,0,0,0,1 @ F,0,0,1,0,0,0,1 @ F,0,0,1,0,0,0,1 @ F,0,0,1,0,0,0,1"
       radius="0"
       unit="px"
       method="auto"
       mode="F"
       chamfer_steps="1"
       flexible="false"
       use_knot_distance="true"
       apply_no_radius="true"
       apply_with_radius="true"
       only_selected="false"
       hide_knots="false" />
    <inkscape:path-effect
       effect="fillet_chamfer"
       id="path-effect15"
       is_visible="true"
       lpeversion="1"
       nodesatellites_param="F,0,0,1,0,0.87918461,0,1 @ F,0,0,1,0,1.4227536,0,1 @ F,0,0,1,0,1.369222,0,1"
       radius="0"
       unit="px"
       method="auto"
       mode="F"
       chamfer_steps="1"
       flexible="false"
       use_knot_distance="true"
       apply_no_radius="true"
       apply_with_radius="true"
       only_selected="false"
       hide_knots="false" />
  </defs>
  <g
     inkscape:label="Layer 1"
     inkscape:groupmode="layer"
     id="layer1">
    <rect
       style="opacity:1;fill:#3b3a3a;fill-opacity:1;stroke:none;stroke-width:1.40598;stroke-linecap:round;stroke-linejoin:round"
       id="rect20"
       width="199.62746"
       height="26.627647"
       x="5.186275"
       y="31.791037"
       ry="1.3788393" />
    <path
       id="rect1"
       style="opacity:0.5;fill:#ffffff;stroke-width:1.05833;stroke-linecap:round;stroke-linejoin:round"
       d="m 191.73846,36.410042 c -2.27007,0 -4.09795,1.827874 -4.09795,4.097941 v 5.001762 c 0,2.270067 1.82788,4.097424 4.09795,4.097424 2.27006,0 4.09742,-1.827357 4.09742,-4.097424 v -5.001762 c 0,-2.270067 -1.82736,-4.097941 -4.09742,-4.097941 z m -0.40205,4.411617 h 3.03186 c 0.21435,0 0.38706,0.172189 0.38706,0.38654 0,0.214348 -0.17271,0.387056 -0.38706,0.387056 h -3.03186 c -0.21435,0 -0.38705,-0.172708 -0.38705,-0.387056 0,-0.214351 0.1727,-0.38654 0.38705,-0.38654 z m 0.81649,1.4118 h 2.21537 c 0.21435,0 0.38706,0.172706 0.38706,0.387057 0,0.214348 -0.17271,0.386539 -0.38706,0.386539 h -2.21537 c -0.21435,0 -0.38654,-0.172191 -0.38654,-0.386539 0,-0.214351 0.17219,-0.387057 0.38654,-0.387057 z m 5.30097,0.413928 a 0.52916503,0.52916503 0 0 0 -0.54105,0.517281 c -0.007,0.362384 -0.008,0.726873 0.002,1.088306 0,1.412097 -0.17026,2.581692 -0.56482,3.513481 -0.39456,0.931788 -1.00006,1.640663 -1.96836,2.193148 a 0.52921795,0.52921795 0 0 0 -0.0196,0.01188 c -2.34906,1.487341 -5.84069,0.426266 -7.13703,-1.999878 -0.69491,-1.415587 -0.6896,-3.041925 -0.64028,-4.74648 a 0.52916503,0.52916503 0 0 0 -0.51366,-0.54467 0.52916503,0.52916503 0 0 0 -0.54519,0.513664 c -0.0497,1.718253 -0.0879,3.549551 0.75035,5.251876 a 0.52921795,0.52921795 0 0 0 0.008,0.01395 c 0.97851,1.841229 2.90608,3.022939 4.9258,3.235979 v 1.044897 h -1.61541 a 0.52916503,0.52916503 0 0 0 -0.52917,0.529684 0.52916503,0.52916503 0 0 0 0.52917,0.529166 h 4.28914 a 0.52916503,0.52916503 0 0 0 0.52917,-0.529166 0.52916503,0.52916503 0 0 0 -0.52917,-0.529684 h -1.6154 v -1.02216 c 0.92141,-0.06116 1.83114,-0.333712 2.64842,-0.848527 1.14347,-0.655543 1.93458,-1.57352 2.40812,-2.691825 0.47512,-1.122045 0.64647,-2.43067 0.64647,-3.925342 a 0.52916503,0.52916503 0 0 0 -0.002,-0.0083 0.52916503,0.52916503 0 0 0 0.002,-0.0078 c -0.0102,-0.340209 -0.007,-0.691128 0,-1.050581 A 0.52916503,0.52916503 0 0 0 197.45409,42.6473 Z m -6.11746,0.939995 h 3.03186 c 0.21435,0 0.38706,0.172705 0.38706,0.387056 0,0.214351 -0.17271,0.387057 -0.38706,0.387057 h -3.03186 c -0.21435,0 -0.38705,-0.172706 -0.38705,-0.387057 0,-0.214351 0.1727,-0.387056 0.38705,-0.387056 z" />
    <path
       id="rect7"
       style="opacity:1;fill:#ffffff;stroke:none;stroke-width:1.05833;stroke-linecap:round;stroke-linejoin:round"
       d="m 31.198991,7.1248819 c -0.177597,0 -0.320394,0.1433139 -0.320394,0.3209106 0,0.1775967 0.142797,0.3203939 0.320394,0.3203939 h 2.153357 c 0.177597,0 0.320394,-0.1427972 0.320394,-0.3203939 0,-0.1775967 -0.142797,-0.3209106 -0.320394,-0.3209106 z m -4.986775,1.0590003 c -0.323706,0 -0.584461,0.2607544 -0.584461,0.5844604 v 0.8040849 c 0,0.323706 0.260755,0.5844605 0.584461,0.5844605 h 12.126907 c 0.323706,0 0.584461,-0.2607545 0.584461,-0.5844605 V 8.7683426 c 0,-0.323706 -0.260755,-0.5844604 -0.584461,-0.5844604 z m 0.579292,2.4024368 v 12.008948 c 0,1.062612 0.855101,1.917713 1.917713,1.917713 h 7.132381 c 1.062611,0 1.918229,-0.855101 1.918229,-1.917713 V 10.586319 Z m 1.817977,2.557983 h 0.05219 c 0.177597,0 0.320394,0.142798 0.320394,0.320394 v 7.841311 c 0,0.177597 -0.142797,0.320394 -0.320394,0.320394 h -0.05219 c -0.177597,0 -0.320394,-0.142797 -0.320394,-0.320394 v -7.841311 c 0,-0.177596 0.142797,-0.320394 0.320394,-0.320394 z m 2.773474,0 h 0.05219 c 0.177597,0 0.320394,0.142798 0.320394,0.320394 v 7.841311 c 0,0.177597 -0.142797,0.320394 -0.320394,0.320394 h -0.05219 c -0.177597,0 -0.320394,-0.142797 -0.320394,-0.320394 v -7.841311 c 0,-0.177596 0.142797,-0.320394 0.320394,-0.320394 z m -1.393196,2.160592 c 0.192013,0 0.346232,0.154216 0.346232,0.346232 v 5.628526 c 0,0.192016 -0.154219,0.346749 -0.346232,0.346749 -0.192016,0 -0.346749,-0.154733 -0.346749,-0.346749 v -5.628526 c 0,-0.192016 0.154733,-0.346232 0.346749,-0.346232 z"
       sodipodi:nodetypes="sssssssssssssssscssssccsssssssssssssssssssssssss"
       inkscape:export-filename="bin.svg"
       inkscape:export-xdpi="96"
       inkscape:export-ydpi="96" />
    <g
       id="g16"
       transform="translate(-1.2296857)"
       inkscape:export-filename="send.svg"
       inkscape:export-xdpi="96"
       inkscape:export-ydpi="96">
      <circle
         style="opacity:1;fill:#00aa00;stroke:none;stroke-width:1.05833;stroke-linecap:round;stroke-linejoin:round"
         id="path16"
         cx="52.429035"
         cy="15.818921"
         r="8.6948204" />
      <path
         id="rect14"
         style="opacity:1;fill:#ffffff;stroke:none;stroke-width:0.772543;stroke-linecap:round;stroke-linejoin:round"
         d="m 13.957804,36.028292 c -0.51556,-0.07579 -0.978218,0.323807 -0.978235,0.844909 l 0,2.712436 a 0.43393656,0.43393656 47.661491 0 0 0.39368,0.432065 l 5.834881,0.543646 -5.851743,0.56658 a 0.41700595,0.41700595 132.23486 0 0 -0.376818,0.415065 v 2.762313 c -7.4e-5,0.620272 0.660711,1.017082 1.208195,0.725537 l 7.610389,-4.05505 c 0.330821,-0.176333 0.330821,-0.650489 0,-0.826822 l -7.562846,-4.029729 c -0.08659,-0.04602 -0.180466,-0.07679 -0.277503,-0.09095 z"
         sodipodi:nodetypes="ccccccccccc"
         inkscape:path-effect="#path-effect16"
         inkscape:original-d="m 13.957804,36.028292 c -0.51556,-0.07579 -0.978218,0.323807 -0.978235,0.844909 v 3.107821 l 6.228561,0.580326 -6.228561,0.603064 v 3.140894 c -7.4e-5,0.620272 0.660711,1.017082 1.208195,0.725537 l 7.610389,-4.05505 c 0.330821,-0.176333 0.330821,-0.650489 0,-0.826822 l -7.562846,-4.029729 c -0.08659,-0.04602 -0.180466,-0.07679 -0.277503,-0.09095 z"
         transform="matrix(1.0686264,0,0,1.0686264,34.841082,-27.539242)" />
    </g>
    <g
       id="g18"
       transform="translate(-1.7886828)"
       inkscape:export-filename="play.svg"
       inkscape:export-xdpi="96"
       inkscape:export-ydpi="96">
      <circle
         style="opacity:1;fill:#00aa00;fill-opacity:1;stroke:none;stroke-width:1.05833;stroke-linecap:round;stroke-linejoin:round"
         id="path17"
         cx="73.958618"
         cy="15.818921"
         r="8.6948204" />
      <path
         id="path18"
         style="opacity:1;fill:#ffffff;stroke-width:0.642395;stroke-linecap:round;stroke-linejoin:round"
         d="m 73.959105,10.541261 c -1.377906,0 -2.487405,1.1095 -2.487405,2.487406 v 3.036014 c 0,1.377906 1.109499,2.487092 2.487405,2.487092 1.377906,0 2.487091,-1.109186 2.487091,-2.487092 v -3.036014 c 0,-1.377906 -1.109185,-2.487406 -2.487091,-2.487406 z m -0.244036,2.677804 h 1.840303 c 0.130109,0 0.23494,0.104516 0.23494,0.234625 0,0.130107 -0.104831,0.234939 -0.23494,0.234939 h -1.840303 c -0.130108,0 -0.234939,-0.104832 -0.234939,-0.234939 0,-0.130109 0.104831,-0.234625 0.234939,-0.234625 z m 0.495599,0.856947 h 1.344704 c 0.130109,0 0.23494,0.10483 0.23494,0.234939 0,0.130107 -0.104831,0.234625 -0.23494,0.234625 h -1.344704 c -0.130108,0 -0.234625,-0.104518 -0.234625,-0.234625 0,-0.130109 0.104517,-0.234939 0.234625,-0.234939 z m 3.21763,0.251249 a 0.32119735,0.32119735 0 0 0 -0.328413,0.313984 c -0.0044,0.219963 -0.0051,0.441204 0.0013,0.66059 0,0.857127 -0.103347,1.567059 -0.342842,2.132644 -0.239494,0.565585 -0.607024,0.995865 -1.19477,1.331217 a 0.32122947,0.32122947 0 0 0 -0.01192,0.0072 c -1.425853,0.9028 -3.545231,0.258739 -4.3321,-1.213904 -0.421799,-0.859245 -0.41858,-1.846415 -0.388638,-2.881061 a 0.32119735,0.32119735 0 0 0 -0.311788,-0.330609 0.32119735,0.32119735 0 0 0 -0.330922,0.311789 c -0.03019,1.04296 -0.05334,2.154538 0.455449,3.187831 a 0.32122947,0.32122947 0 0 0 0.0047,0.0085 c 0.593946,1.117606 1.763962,1.834891 2.989905,1.964204 v 0.634241 h -0.980533 a 0.32119735,0.32119735 0 0 0 -0.321199,0.321512 0.32119735,0.32119735 0 0 0 0.321199,0.321198 h 2.603463 a 0.32119735,0.32119735 0 0 0 0.321198,-0.321198 0.32119735,0.32119735 0 0 0 -0.321198,-0.321512 h -0.980533 v -0.62044 c 0.559283,-0.03712 1.11148,-0.202559 1.60756,-0.515047 0.694076,-0.397907 1.17427,-0.955109 1.461703,-1.633908 0.288396,-0.681069 0.392402,-1.47539 0.392402,-2.382639 a 0.32119735,0.32119735 0 0 0 -9.11e-4,-0.005 0.32119735,0.32119735 0 0 0 9.11e-4,-0.0047 c -0.0062,-0.206503 -0.0044,-0.419507 0,-0.637691 a 0.32119735,0.32119735 0 0 0 -0.313984,-0.327158 z m -3.713229,0.570567 h 1.840303 c 0.130109,0 0.23494,0.10483 0.23494,0.234939 0,0.130108 -0.104831,0.234939 -0.23494,0.234939 h -1.840303 c -0.130108,0 -0.234939,-0.104831 -0.234939,-0.234939 0,-0.130109 0.104831,-0.234939 0.234939,-0.234939 z" />
    </g>
    <g
       id="g20"
       transform="matrix(0.76570051,0,0,0.76570051,28.509998,-16.26494)"
       inkscape:export-filename="pause.svg"
       inkscape:export-xdpi="96"
       inkscape:export-ydpi="96">
      <path
         id="path19"
         style="opacity:1;fill:#d40000;fill-opacity:1;stroke:none;stroke-width:1.05833;stroke-linecap:round;stroke-linejoin:round"
         d="m 85.379801,30.545939 c -6.271395,1.8e-5 -11.355361,5.083984 -11.355379,11.355379 1.8e-5,6.271395 5.083984,11.355362 11.355379,11.35538 6.271396,-1.8e-5 11.355362,-5.083984 11.35538,-11.35538 -1.8e-5,-6.271395 -5.083985,-11.355361 -11.35538,-11.355379 z"
         sodipodi:nodetypes="ccccc" />
      <path
         id="rect19"
         style="opacity:1;fill:#ffffff;fill-opacity:1;stroke:none;stroke-width:1.22773;stroke-linecap:round;stroke-linejoin:round"
         d="m 82.347943,36.705946 c -0.886142,0 -1.599406,0.713264 -1.599406,1.599405 v 7.191934 c 0,0.886142 0.713264,1.599406 1.599406,1.599406 0.886141,0 1.600006,-0.713264 1.600006,-1.599406 v -7.191934 c 0,-0.886142 -0.713865,-1.599405 -1.600006,-1.599405 z m 6.063715,0 c -0.88614,0 -1.599406,0.713264 -1.599406,1.599405 v 7.191934 c 0,0.886142 0.713266,1.599406 1.599406,1.599406 0.886142,0 1.599408,-0.713264 1.599408,-1.599406 v -7.191934 c 0,-0.886142 -0.713266,-1.599405 -1.599408,-1.599405 z" />
    </g>
    <rect
       style="opacity:1;fill:#3b3a3a;fill-opacity:1;stroke:none;stroke-width:1.40598;stroke-linecap:round;stroke-linejoin:round"
       id="rect21"
       width="199.62746"
       height="26.627647"
       x="5.186275"
       y="65.696739"
       ry="1.3788393" />
    <g
       id="g21"
       transform="translate(139.30866,63.191642)">
      <circle
         style="opacity:1;fill:#00aa00;stroke:none;stroke-width:1.05833;stroke-linecap:round;stroke-linejoin:round"
         id="circle21"
         cx="52.429035"
         cy="15.818921"
         r="8.6948204" />
      <path
         id="path21"
         style="opacity:1;fill:#ffffff;stroke:none;stroke-width:0.772543;stroke-linecap:round;stroke-linejoin:round"
         d="m 13.957804,36.028292 c -0.51556,-0.07579 -0.978218,0.323807 -0.978235,0.844909 l 0,2.712436 a 0.43393656,0.43393656 47.661491 0 0 0.39368,0.432065 l 5.834881,0.543646 -5.851743,0.56658 a 0.41700595,0.41700595 132.23486 0 0 -0.376818,0.415065 v 2.762313 c -7.4e-5,0.620272 0.660711,1.017082 1.208195,0.725537 l 7.610389,-4.05505 c 0.330821,-0.176333 0.330821,-0.650489 0,-0.826822 l -7.562846,-4.029729 c -0.08659,-0.04602 -0.180466,-0.07679 -0.277503,-0.09095 z"
         sodipodi:nodetypes="ccccccccccc"
         inkscape:path-effect="#path-effect22"
         inkscape:original-d="m 13.957804,36.028292 c -0.51556,-0.07579 -0.978218,0.323807 -0.978235,0.844909 v 3.107821 l 6.228561,0.580326 -6.228561,0.603064 v 3.140894 c -7.4e-5,0.620272 0.660711,1.017082 1.208195,0.725537 l 7.610389,-4.05505 c 0.330821,-0.176333 0.330821,-0.650489 0,-0.826822 l -7.562846,-4.029729 c -0.08659,-0.04602 -0.180466,-0.07679 -0.277503,-0.09095 z"
         transform="matrix(1.0686264,0,0,1.0686264,34.841082,-27.539242)" />
    </g>
    <path
       id="path22"
       style="opacity:1;fill:#ffffff;stroke-width:1.05833;stroke-linecap:round;stroke-linejoin:round"
       d="m 15.813806,7.1233524 c -2.27007,0 -4.09795,1.827874 -4.09795,4.0979406 v 5.001762 c 0,2.270067 1.82788,4.097424 4.09795,4.097424 2.27006,0 4.09742,-1.827357 4.09742,-4.097424 v -5.001762 c 0,-2.2700666 -1.82736,-4.0979406 -4.09742,-4.0979406 z m -0.40205,4.4116166 h 3.03186 c 0.21435,0 0.38706,0.172189 0.38706,0.38654 0,0.214348 -0.17271,0.387056 -0.38706,0.387056 h -3.03186 c -0.21435,0 -0.38705,-0.172708 -0.38705,-0.387056 0,-0.214351 0.1727,-0.38654 0.38705,-0.38654 z m 0.81649,1.4118 h 2.21537 c 0.21435,0 0.38706,0.172706 0.38706,0.387057 0,0.214348 -0.17271,0.386539 -0.38706,0.386539 h -2.21537 c -0.21435,0 -0.38654,-0.172191 -0.38654,-0.386539 0,-0.214351 0.17219,-0.387057 0.38654,-0.387057 z m 5.30097,0.413928 a 0.52916503,0.52916503 0 0 0 -0.54105,0.517281 c -0.007,0.362384 -0.008,0.726873 0.002,1.088306 0,1.412097 -0.17026,2.581692 -0.56482,3.513481 -0.39456,0.931788 -1.00006,1.640663 -1.96836,2.193148 a 0.52921795,0.52921795 0 0 0 -0.0196,0.01188 c -2.34906,1.487341 -5.84069,0.426266 -7.13703,-1.999878 -0.69491,-1.415587 -0.6896,-3.041925 -0.64028,-4.74648 a 0.52916503,0.52916503 0 0 0 -0.51366,-0.54467 0.52916503,0.52916503 0 0 0 -0.5451897,0.513664 c -0.0497,1.718253 -0.0879,3.549551 0.7503497,5.251876 a 0.52921795,0.52921795 0 0 0 0.008,0.01395 c 0.97851,1.841229 2.90608,3.022939 4.9258,3.235979 v 1.044897 h -1.61541 a 0.52916503,0.52916503 0 0 0 -0.52917,0.529684 0.52916503,0.52916503 0 0 0 0.52917,0.529166 h 4.28914 a 0.52916503,0.52916503 0 0 0 0.52917,-0.529166 0.52916503,0.52916503 0 0 0 -0.52917,-0.529684 h -1.6154 v -1.02216 c 0.92141,-0.06116 1.83114,-0.333712 2.64842,-0.848527 1.14347,-0.655543 1.93458,-1.57352 2.40812,-2.691825 0.47512,-1.122045 0.64647,-2.43067 0.64647,-3.925342 a 0.52916503,0.52916503 0 0 0 -0.002,-0.0083 0.52916503,0.52916503 0 0 0 0.002,-0.0078 c -0.0102,-0.340209 -0.007,-0.691128 0,-1.050581 a 0.52916503,0.52916503 0 0 0 -0.51728,-0.538986 z m -6.11746,0.939995 h 3.03186 c 0.21435,0 0.38706,0.172705 0.38706,0.387056 0,0.214351 -0.17271,0.387057 -0.38706,0.387057 h -3.03186 c -0.21435,0 -0.38705,-0.172706 -0.38705,-0.387057 0,-0.214351 0.1727,-0.387056 0.38705,-0.387056 z"
       inkscape:export-filename="microphone.svg"
       inkscape:export-xdpi="96"
       inkscape:export-ydpi="96" />
    <g
       id="g24"
       transform="matrix(0.76570051,0,0,0.76570051,104.98507,46.926702)">
      <path
         id="path23"
         style="opacity:1;fill:#d40000;fill-opacity:1;stroke:none;stroke-width:1.05833;stroke-linecap:round;stroke-linejoin:round"
         d="m 85.379801,30.545939 c -6.271395,1.8e-5 -11.355361,5.083984 -11.355379,11.355379 1.8e-5,6.271395 5.083984,11.355362 11.355379,11.35538 6.271396,-1.8e-5 11.355362,-5.083984 11.35538,-11.35538 -1.8e-5,-6.271395 -5.083985,-11.355361 -11.35538,-11.355379 z"
         sodipodi:nodetypes="ccccc" />
      <path
         id="path24"
         style="opacity:1;fill:#ffffff;fill-opacity:1;stroke:none;stroke-width:1.22773;stroke-linecap:round;stroke-linejoin:round"
         d="m 82.347943,36.705946 c -0.886142,0 -1.599406,0.713264 -1.599406,1.599405 v 7.191934 c 0,0.886142 0.713264,1.599406 1.599406,1.599406 0.886141,0 1.600006,-0.713264 1.600006,-1.599406 v -7.191934 c 0,-0.886142 -0.713865,-1.599405 -1.600006,-1.599405 z m 6.063715,0 c -0.88614,0 -1.599406,0.713264 -1.599406,1.599405 v 7.191934 c 0,0.886142 0.713266,1.599406 1.599406,1.599406 0.886142,0 1.599408,-0.713264 1.599408,-1.599406 v -7.191934 c 0,-0.886142 -0.713266,-1.599405 -1.599408,-1.599405 z" />
    </g>
    <path
       id="path25"
       style="opacity:0.5;fill:#ffffff;stroke:none;stroke-width:1.05833;stroke-linecap:round;stroke-linejoin:round"
       d="m 56.396234,70.316517 c -0.177597,0 -0.320394,0.143314 -0.320394,0.32091 0,0.177597 0.142797,0.320394 0.320394,0.320394 h 2.153357 c 0.177597,0 0.320394,-0.142797 0.320394,-0.320394 0,-0.177596 -0.142797,-0.32091 -0.320394,-0.32091 z m -4.986775,1.059 c -0.323706,0 -0.584461,0.260755 -0.584461,0.584461 v 0.804084 c 0,0.323706 0.260755,0.584461 0.584461,0.584461 h 12.126907 c 0.323706,0 0.584461,-0.260755 0.584461,-0.584461 v -0.804084 c 0,-0.323706 -0.260755,-0.584461 -0.584461,-0.584461 z m 0.579292,2.402437 v 12.008948 c 0,1.062612 0.855101,1.917713 1.917713,1.917713 h 7.132381 c 1.062611,0 1.918229,-0.855101 1.918229,-1.917713 V 73.777954 Z m 1.817977,2.557983 h 0.05219 c 0.177597,0 0.320394,0.142798 0.320394,0.320394 v 7.841311 c 0,0.177597 -0.142797,0.320394 -0.320394,0.320394 h -0.05219 c -0.177597,0 -0.320394,-0.142797 -0.320394,-0.320394 v -7.841311 c 0,-0.177596 0.142797,-0.320394 0.320394,-0.320394 z m 2.773474,0 h 0.05219 c 0.177597,0 0.320394,0.142798 0.320394,0.320394 v 7.841311 c 0,0.177597 -0.142797,0.320394 -0.320394,0.320394 h -0.05219 c -0.177597,0 -0.320394,-0.142797 -0.320394,-0.320394 v -7.841311 c 0,-0.177596 0.142797,-0.320394 0.320394,-0.320394 z m -1.393196,2.160592 c 0.192013,0 0.346232,0.154216 0.346232,0.346232 v 5.628526 c 0,0.192016 -0.154219,0.346749 -0.346232,0.346749 -0.192016,0 -0.346749,-0.154733 -0.346749,-0.346749 v -5.628526 c 0,-0.192016 0.154733,-0.346232 0.346749,-0.346232 z"
       sodipodi:nodetypes="sssssssssssssssscssssccsssssssssssssssssssssssss" />
    <g
       id="g31"
       transform="translate(7.7927848)">
      <g
         id="g27">
        <rect
           style="opacity:1;fill:#ffffff;fill-opacity:1;stroke:none;stroke-width:0.89821;stroke-linecap:round;stroke-linejoin:round"
           id="rect25"
           width="3.2165143"
           height="15.914167"
           x="61.866859"
           y="71.053482"
           ry="1.6082572" />
        <rect
           style="opacity:1;fill:#ffffff;fill-opacity:1;stroke:none;stroke-width:0.793206;stroke-linecap:round;stroke-linejoin:round"
           id="rect26"
           width="3.2165143"
           height="12.41081"
           x="66.777931"
           y="72.805161"
           ry="1.6082572" />
        <rect
           style="opacity:1;fill:#ffffff;fill-opacity:1;stroke:none;stroke-width:0.68421;stroke-linecap:round;stroke-linejoin:round"
           id="rect27"
           width="3.2165143"
           height="9.2343521"
           x="71.689003"
           y="74.393387"
           ry="1.6082572" />
      </g>
      <g
         id="g30"
         transform="translate(14.733215)">
        <rect
           style="opacity:1;fill:#ffffff;fill-opacity:1;stroke:none;stroke-width:0.89821;stroke-linecap:round;stroke-linejoin:round"
           id="rect28"
           width="3.2165143"
           height="15.914167"
           x="61.866859"
           y="71.053482"
           ry="1.6082572" />
        <rect
           style="opacity:1;fill:#ffffff;fill-opacity:1;stroke:none;stroke-width:0.793206;stroke-linecap:round;stroke-linejoin:round"
           id="rect29"
           width="3.2165143"
           height="12.41081"
           x="66.777931"
           y="72.805161"
           ry="1.6082572" />
        <rect
           style="opacity:1;fill:#ffffff;fill-opacity:1;stroke:none;stroke-width:0.68421;stroke-linecap:round;stroke-linejoin:round"
           id="rect30"
           width="3.2165143"
           height="9.2343521"
           x="71.689003"
           y="74.393387"
           ry="1.6082572" />
      </g>
    </g>
    <g
       id="g37"
       transform="translate(37.259215)">
      <g
         id="g33">
        <rect
           style="opacity:1;fill:#ffffff;fill-opacity:1;stroke:none;stroke-width:0.89821;stroke-linecap:round;stroke-linejoin:round"
           id="rect31"
           width="3.2165143"
           height="15.914167"
           x="61.866859"
           y="71.053482"
           ry="1.6082572" />
        <rect
           style="opacity:1;fill:#ffffff;fill-opacity:1;stroke:none;stroke-width:0.793206;stroke-linecap:round;stroke-linejoin:round"
           id="rect32"
           width="3.2165143"
           height="12.41081"
           x="66.777931"
           y="72.805161"
           ry="1.6082572" />
        <rect
           style="opacity:1;fill:#ffffff;fill-opacity:1;stroke:none;stroke-width:0.68421;stroke-linecap:round;stroke-linejoin:round"
           id="rect33"
           width="3.2165143"
           height="9.2343521"
           x="71.689003"
           y="74.393387"
           ry="1.6082572" />
      </g>
      <g
         id="g36"
         transform="translate(14.733215)">
        <rect
           style="opacity:1;fill:#ffffff;fill-opacity:1;stroke:none;stroke-width:0.89821;stroke-linecap:round;stroke-linejoin:round"
           id="rect34"
           width="3.2165143"
           height="15.914167"
           x="61.866859"
           y="71.053482"
           ry="1.6082572" />
        <rect
           style="opacity:1;fill:#ffffff;fill-opacity:1;stroke:none;stroke-width:0.793206;stroke-linecap:round;stroke-linejoin:round"
           id="rect35"
           width="3.2165143"
           height="12.41081"
           x="66.777931"
           y="72.805161"
           ry="1.6082572" />
        <rect
           style="opacity:1;fill:#ffffff;fill-opacity:1;stroke:none;stroke-width:0.68421;stroke-linecap:round;stroke-linejoin:round"
           id="rect36"
           width="3.2165143"
           height="9.2343521"
           x="71.689003"
           y="74.393387"
           ry="1.6082572" />
      </g>
    </g>
    <g
       id="g43"
       transform="translate(66.725645)">
      <g
         id="g39">
        <rect
           style="opacity:1;fill:#ffffff;fill-opacity:1;stroke:none;stroke-width:0.89821;stroke-linecap:round;stroke-linejoin:round"
           id="rect37"
           width="3.2165143"
           height="15.914167"
           x="61.866859"
           y="71.053482"
           ry="1.6082572" />
        <rect
           style="opacity:1;fill:#ffffff;fill-opacity:1;stroke:none;stroke-width:0.793206;stroke-linecap:round;stroke-linejoin:round"
           id="rect38"
           width="3.2165143"
           height="12.41081"
           x="66.777931"
           y="72.805161"
           ry="1.6082572" />
        <rect
           style="opacity:1;fill:#ffffff;fill-opacity:1;stroke:none;stroke-width:0.68421;stroke-linecap:round;stroke-linejoin:round"
           id="rect39"
           width="3.2165143"
           height="9.2343521"
           x="71.689003"
           y="74.393387"
           ry="1.6082572" />
      </g>
      <g
         id="g42"
         transform="translate(14.733215)">
        <rect
           style="opacity:1;fill:#ffffff;fill-opacity:1;stroke:none;stroke-width:0.89821;stroke-linecap:round;stroke-linejoin:round"
           id="rect40"
           width="3.2165143"
           height="15.914167"
           x="61.866859"
           y="71.053482"
           ry="1.6082572" />
        <rect
           style="opacity:1;fill:#ffffff;fill-opacity:1;stroke:none;stroke-width:0.793206;stroke-linecap:round;stroke-linejoin:round"
           id="rect41"
           width="3.2165143"
           height="12.41081"
           x="66.777931"
           y="72.805161"
           ry="1.6082572" />
        <rect
           style="opacity:1;fill:#ffffff;fill-opacity:1;stroke:none;stroke-width:0.68421;stroke-linecap:round;stroke-linejoin:round"
           id="rect42"
           width="3.2165143"
           height="9.2343521"
           x="71.689003"
           y="74.393387"
           ry="1.6082572" />
      </g>
    </g>
    <rect
       style="opacity:1;fill:#3b3a3a;fill-opacity:1;stroke:none;stroke-width:1.40598;stroke-linecap:round;stroke-linejoin:round"
       id="rect43"
       width="199.62746"
       height="26.627647"
       x="5.186275"
       y="99.60244"
       ry="1.3788393" />
    <g
       id="g44"
       transform="translate(139.30866,97.097345)">
      <circle
         style="opacity:1;fill:#00aa00;stroke:none;stroke-width:1.05833;stroke-linecap:round;stroke-linejoin:round"
         id="circle43"
         cx="52.429035"
         cy="15.818921"
         r="8.6948204" />
      <path
         id="path43"
         style="opacity:1;fill:#ffffff;stroke:none;stroke-width:0.772543;stroke-linecap:round;stroke-linejoin:round"
         d="m 13.957804,36.028292 c -0.51556,-0.07579 -0.978218,0.323807 -0.978235,0.844909 l 0,2.712436 a 0.43393656,0.43393656 47.661491 0 0 0.39368,0.432065 l 5.834881,0.543646 -5.851743,0.56658 a 0.41700595,0.41700595 132.23486 0 0 -0.376818,0.415065 v 2.762313 c -7.4e-5,0.620272 0.660711,1.017082 1.208195,0.725537 l 7.610389,-4.05505 c 0.330821,-0.176333 0.330821,-0.650489 0,-0.826822 l -7.562846,-4.029729 c -0.08659,-0.04602 -0.180466,-0.07679 -0.277503,-0.09095 z"
         sodipodi:nodetypes="ccccccccccc"
         inkscape:path-effect="#path-effect65"
         inkscape:original-d="m 13.957804,36.028292 c -0.51556,-0.07579 -0.978218,0.323807 -0.978235,0.844909 v 3.107821 l 6.228561,0.580326 -6.228561,0.603064 v 3.140894 c -7.4e-5,0.620272 0.660711,1.017082 1.208195,0.725537 l 7.610389,-4.05505 c 0.330821,-0.176333 0.330821,-0.650489 0,-0.826822 l -7.562846,-4.029729 c -0.08659,-0.04602 -0.180466,-0.07679 -0.277503,-0.09095 z"
         transform="matrix(1.0686264,0,0,1.0686264,34.841082,-27.539242)" />
    </g>
    <path
       id="path46"
       style="opacity:0.5;fill:#ffffff;stroke:none;stroke-width:1.05833;stroke-linecap:round;stroke-linejoin:round"
       d="m 56.396234,104.22222 c -0.177597,0 -0.320394,0.14331 -0.320394,0.32091 0,0.1776 0.142797,0.32039 0.320394,0.32039 h 2.153357 c 0.177597,0 0.320394,-0.14279 0.320394,-0.32039 0,-0.1776 -0.142797,-0.32091 -0.320394,-0.32091 z m -4.986775,1.059 c -0.323706,0 -0.584461,0.26075 -0.584461,0.58446 v 0.80408 c 0,0.32371 0.260755,0.58447 0.584461,0.58447 h 12.126907 c 0.323706,0 0.584461,-0.26076 0.584461,-0.58447 v -0.80408 c 0,-0.32371 -0.260755,-0.58446 -0.584461,-0.58446 z m 0.579292,2.40244 v 12.00894 c 0,1.06262 0.855101,1.91772 1.917713,1.91772 h 7.132381 c 1.062611,0 1.918229,-0.8551 1.918229,-1.91772 v -12.00894 z m 1.817977,2.55798 h 0.05219 c 0.177597,0 0.320394,0.1428 0.320394,0.32039 v 7.84131 c 0,0.1776 -0.142797,0.3204 -0.320394,0.3204 h -0.05219 c -0.177597,0 -0.320394,-0.1428 -0.320394,-0.3204 v -7.84131 c 0,-0.17759 0.142797,-0.32039 0.320394,-0.32039 z m 2.773474,0 h 0.05219 c 0.177597,0 0.320394,0.1428 0.320394,0.32039 v 7.84131 c 0,0.1776 -0.142797,0.3204 -0.320394,0.3204 h -0.05219 c -0.177597,0 -0.320394,-0.1428 -0.320394,-0.3204 v -7.84131 c 0,-0.17759 0.142797,-0.32039 0.320394,-0.32039 z m -1.393196,2.16059 c 0.192013,0 0.346232,0.15422 0.346232,0.34623 v 5.62853 c 0,0.19202 -0.154219,0.34675 -0.346232,0.34675 -0.192016,0 -0.346749,-0.15473 -0.346749,-0.34675 v -5.62853 c 0,-0.19201 0.154733,-0.34623 0.346749,-0.34623 z"
       sodipodi:nodetypes="sssssssssssssssscssssccsssssssssssssssssssssssss" />
    <g
       id="g52"
       transform="translate(7.7927848,33.905703)">
      <g
         id="g48">
        <rect
           style="opacity:1;fill:#ffffff;fill-opacity:1;stroke:none;stroke-width:0.89821;stroke-linecap:round;stroke-linejoin:round"
           id="rect46"
           width="3.2165143"
           height="15.914167"
           x="61.866859"
           y="71.053482"
           ry="1.6082572" />
        <rect
           style="opacity:1;fill:#ffffff;fill-opacity:1;stroke:none;stroke-width:0.793206;stroke-linecap:round;stroke-linejoin:round"
           id="rect47"
           width="3.2165143"
           height="12.41081"
           x="66.777931"
           y="72.805161"
           ry="1.6082572" />
        <rect
           style="opacity:1;fill:#ffffff;fill-opacity:1;stroke:none;stroke-width:0.68421;stroke-linecap:round;stroke-linejoin:round"
           id="rect48"
           width="3.2165143"
           height="9.2343521"
           x="71.689003"
           y="74.393387"
           ry="1.6082572" />
      </g>
      <g
         id="g51"
         transform="translate(14.733215)">
        <rect
           style="opacity:1;fill:#ffffff;fill-opacity:1;stroke:none;stroke-width:0.89821;stroke-linecap:round;stroke-linejoin:round"
           id="rect49"
           width="3.2165143"
           height="15.914167"
           x="61.866859"
           y="71.053482"
           ry="1.6082572" />
        <rect
           style="opacity:1;fill:#ffffff;fill-opacity:1;stroke:none;stroke-width:0.793206;stroke-linecap:round;stroke-linejoin:round"
           id="rect50"
           width="3.2165143"
           height="12.41081"
           x="66.777931"
           y="72.805161"
           ry="1.6082572" />
        <rect
           style="opacity:1;fill:#ffffff;fill-opacity:1;stroke:none;stroke-width:0.68421;stroke-linecap:round;stroke-linejoin:round"
           id="rect51"
           width="3.2165143"
           height="9.2343521"
           x="71.689003"
           y="74.393387"
           ry="1.6082572" />
      </g>
    </g>
    <g
       id="g58"
       transform="translate(37.259215,33.905703)">
      <g
         id="g54">
        <rect
           style="opacity:1;fill:#ffffff;fill-opacity:1;stroke:none;stroke-width:0.89821;stroke-linecap:round;stroke-linejoin:round"
           id="rect52"
           width="3.2165143"
           height="15.914167"
           x="61.866859"
           y="71.053482"
           ry="1.6082572" />
        <rect
           style="opacity:1;fill:#ffffff;fill-opacity:1;stroke:none;stroke-width:0.793206;stroke-linecap:round;stroke-linejoin:round"
           id="rect53"
           width="3.2165143"
           height="12.41081"
           x="66.777931"
           y="72.805161"
           ry="1.6082572" />
        <rect
           style="opacity:1;fill:#ffffff;fill-opacity:1;stroke:none;stroke-width:0.68421;stroke-linecap:round;stroke-linejoin:round"
           id="rect54"
           width="3.2165143"
           height="9.2343521"
           x="71.689003"
           y="74.393387"
           ry="1.6082572" />
      </g>
      <g
         id="g57"
         transform="translate(14.733215)">
        <rect
           style="opacity:1;fill:#ffffff;fill-opacity:1;stroke:none;stroke-width:0.89821;stroke-linecap:round;stroke-linejoin:round"
           id="rect55"
           width="3.2165143"
           height="15.914167"
           x="61.866859"
           y="71.053482"
           ry="1.6082572" />
        <rect
           style="opacity:1;fill:#ffffff;fill-opacity:1;stroke:none;stroke-width:0.793206;stroke-linecap:round;stroke-linejoin:round"
           id="rect56"
           width="3.2165143"
           height="12.41081"
           x="66.777931"
           y="72.805161"
           ry="1.6082572" />
        <rect
           style="opacity:1;fill:#ffffff;fill-opacity:1;stroke:none;stroke-width:0.68421;stroke-linecap:round;stroke-linejoin:round"
           id="rect57"
           width="3.2165143"
           height="9.2343521"
           x="71.689003"
           y="74.393387"
           ry="1.6082572" />
      </g>
    </g>
    <g
       id="g64"
       transform="translate(66.725645,33.905703)">
      <g
         id="g60">
        <rect
           style="opacity:1;fill:#ffffff;fill-opacity:1;stroke:none;stroke-width:0.89821;stroke-linecap:round;stroke-linejoin:round"
           id="rect58"
           width="3.2165143"
           height="15.914167"
           x="61.866859"
           y="71.053482"
           ry="1.6082572" />
        <rect
           style="opacity:1;fill:#ffffff;fill-opacity:1;stroke:none;stroke-width:0.793206;stroke-linecap:round;stroke-linejoin:round"
           id="rect59"
           width="3.2165143"
           height="12.41081"
           x="66.777931"
           y="72.805161"
           ry="1.6082572" />
        <rect
           style="opacity:1;fill:#ffffff;fill-opacity:1;stroke:none;stroke-width:0.68421;stroke-linecap:round;stroke-linejoin:round"
           id="rect60"
           width="3.2165143"
           height="9.2343521"
           x="71.689003"
           y="74.393387"
           ry="1.6082572" />
      </g>
      <g
         id="g63"
         transform="translate(14.733215)">
        <rect
           style="opacity:1;fill:#ffffff;fill-opacity:1;stroke:none;stroke-width:0.89821;stroke-linecap:round;stroke-linejoin:round"
           id="rect61"
           width="3.2165143"
           height="15.914167"
           x="61.866859"
           y="71.053482"
           ry="1.6082572" />
        <rect
           style="opacity:1;fill:#ffffff;fill-opacity:1;stroke:none;stroke-width:0.793206;stroke-linecap:round;stroke-linejoin:round"
           id="rect62"
           width="3.2165143"
           height="12.41081"
           x="66.777931"
           y="72.805161"
           ry="1.6082572" />
        <rect
           style="opacity:1;fill:#ffffff;fill-opacity:1;stroke:none;stroke-width:0.68421;stroke-linecap:round;stroke-linejoin:round"
           id="rect63"
           width="3.2165143"
           height="9.2343521"
           x="71.689003"
           y="74.393387"
           ry="1.6082572" />
      </g>
    </g>
    <g
       id="g65"
       transform="translate(97.706209,97.097345)">
      <circle
         style="opacity:1;fill:#00aa00;fill-opacity:1;stroke:none;stroke-width:1.05833;stroke-linecap:round;stroke-linejoin:round"
         id="circle65"
         cx="73.958618"
         cy="15.818921"
         r="8.6948204" />
      <path
         id="path65"
         style="opacity:1;fill:#ffffff;stroke-width:0.642395;stroke-linecap:round;stroke-linejoin:round"
         d="m 73.959105,10.541261 c -1.377906,0 -2.487405,1.1095 -2.487405,2.487406 v 3.036014 c 0,1.377906 1.109499,2.487092 2.487405,2.487092 1.377906,0 2.487091,-1.109186 2.487091,-2.487092 v -3.036014 c 0,-1.377906 -1.109185,-2.487406 -2.487091,-2.487406 z m -0.244036,2.677804 h 1.840303 c 0.130109,0 0.23494,0.104516 0.23494,0.234625 0,0.130107 -0.104831,0.234939 -0.23494,0.234939 h -1.840303 c -0.130108,0 -0.234939,-0.104832 -0.234939,-0.234939 0,-0.130109 0.104831,-0.234625 0.234939,-0.234625 z m 0.495599,0.856947 h 1.344704 c 0.130109,0 0.23494,0.10483 0.23494,0.234939 0,0.130107 -0.104831,0.234625 -0.23494,0.234625 h -1.344704 c -0.130108,0 -0.234625,-0.104518 -0.234625,-0.234625 0,-0.130109 0.104517,-0.234939 0.234625,-0.234939 z m 3.21763,0.251249 a 0.32119735,0.32119735 0 0 0 -0.328413,0.313984 c -0.0044,0.219963 -0.0051,0.441204 0.0013,0.66059 0,0.857127 -0.103347,1.567059 -0.342842,2.132644 -0.239494,0.565585 -0.607024,0.995865 -1.19477,1.331217 a 0.32122947,0.32122947 0 0 0 -0.01192,0.0072 c -1.425853,0.9028 -3.545231,0.258739 -4.3321,-1.213904 -0.421799,-0.859245 -0.41858,-1.846415 -0.388638,-2.881061 a 0.32119735,0.32119735 0 0 0 -0.311788,-0.330609 0.32119735,0.32119735 0 0 0 -0.330922,0.311789 c -0.03019,1.04296 -0.05334,2.154538 0.455449,3.187831 a 0.32122947,0.32122947 0 0 0 0.0047,0.0085 c 0.593946,1.117606 1.763962,1.834891 2.989905,1.964204 v 0.634241 h -0.980533 a 0.32119735,0.32119735 0 0 0 -0.321199,0.321512 0.32119735,0.32119735 0 0 0 0.321199,0.321198 h 2.603463 a 0.32119735,0.32119735 0 0 0 0.321198,-0.321198 0.32119735,0.32119735 0 0 0 -0.321198,-0.321512 h -0.980533 v -0.62044 c 0.559283,-0.03712 1.11148,-0.202559 1.60756,-0.515047 0.694076,-0.397907 1.17427,-0.955109 1.461703,-1.633908 0.288396,-0.681069 0.392402,-1.47539 0.392402,-2.382639 a 0.32119735,0.32119735 0 0 0 -9.11e-4,-0.005 0.32119735,0.32119735 0 0 0 9.11e-4,-0.0047 c -0.0062,-0.206503 -0.0044,-0.419507 0,-0.637691 a 0.32119735,0.32119735 0 0 0 -0.313984,-0.327158 z m -3.713229,0.570567 h 1.840303 c 0.130109,0 0.23494,0.10483 0.23494,0.234939 0,0.130108 -0.104831,0.234939 -0.23494,0.234939 h -1.840303 c -0.130108,0 -0.234939,-0.104831 -0.234939,-0.234939 0,-0.130109 0.104831,-0.234939 0.234939,-0.234939 z" />
    </g>
  </g>
</svg>
