<?xml version="1.0" encoding="UTF-8" standalone="no"?>
<!-- Created with Inkscape (http://www.inkscape.org/) -->

<svg
   width="13.295829mm"
   height="17.3881mm"
   viewBox="0 0 13.295829 17.3881"
   version="1.1"
   id="svg1"
   xmlns="http://www.w3.org/2000/svg"
   xmlns:svg="http://www.w3.org/2000/svg">
  <defs
     id="defs1" />
  <g
     id="layer1"
     transform="translate(-25.627755,-7.124882)">
    <path
       id="rect7"
       style="opacity:1;fill:#ffffff;stroke:none;stroke-width:1.05833;stroke-linecap:round;stroke-linejoin:round"
       d="m 31.198991,7.1248819 c -0.177597,0 -0.320394,0.1433139 -0.320394,0.3209106 0,0.1775967 0.142797,0.3203939 0.320394,0.3203939 h 2.153357 c 0.177597,0 0.320394,-0.1427972 0.320394,-0.3203939 0,-0.1775967 -0.142797,-0.3209106 -0.320394,-0.3209106 z m -4.986775,1.0590003 c -0.323706,0 -0.584461,0.2607544 -0.584461,0.5844604 v 0.8040849 c 0,0.323706 0.260755,0.5844605 0.584461,0.5844605 h 12.126907 c 0.323706,0 0.584461,-0.2607545 0.584461,-0.5844605 V 8.7683426 c 0,-0.323706 -0.260755,-0.5844604 -0.584461,-0.5844604 z m 0.579292,2.4024368 v 12.008948 c 0,1.062612 0.855101,1.917713 1.917713,1.917713 h 7.132381 c 1.062611,0 1.918229,-0.855101 1.918229,-1.917713 V 10.586319 Z m 1.817977,2.557983 h 0.05219 c 0.177597,0 0.320394,0.142798 0.320394,0.320394 v 7.841311 c 0,0.177597 -0.142797,0.320394 -0.320394,0.320394 h -0.05219 c -0.177597,0 -0.320394,-0.142797 -0.320394,-0.320394 v -7.841311 c 0,-0.177596 0.142797,-0.320394 0.320394,-0.320394 z m 2.773474,0 h 0.05219 c 0.177597,0 0.320394,0.142798 0.320394,0.320394 v 7.841311 c 0,0.177597 -0.142797,0.320394 -0.320394,0.320394 h -0.05219 c -0.177597,0 -0.320394,-0.142797 -0.320394,-0.320394 v -7.841311 c 0,-0.177596 0.142797,-0.320394 0.320394,-0.320394 z m -1.393196,2.160592 c 0.192013,0 0.346232,0.154216 0.346232,0.346232 v 5.628526 c 0,0.192016 -0.154219,0.346749 -0.346232,0.346749 -0.192016,0 -0.346749,-0.154733 -0.346749,-0.346749 v -5.628526 c 0,-0.192016 0.154733,-0.346232 0.346749,-0.346232 z" />
  </g>
</svg>
