<?xml version="1.0" encoding="UTF-8" standalone="no"?>
<!-- Created with Inkscape (http://www.inkscape.org/) -->

<svg
   width="12.467533mm"
   height="17.389627mm"
   viewBox="0 0 12.467533 17.389627"
   version="1.1"
   id="svg1"
   xmlns="http://www.w3.org/2000/svg"
   xmlns:svg="http://www.w3.org/2000/svg">
  <defs
     id="defs1" />
  <g
     id="layer1"
     transform="translate(-9.5792754,-7.1233523)">
    <path
       id="path22"
       style="opacity:1;fill:#ffffff;stroke-width:1.05833;stroke-linecap:round;stroke-linejoin:round"
       d="m 15.813806,7.1233524 c -2.27007,0 -4.09795,1.827874 -4.09795,4.0979406 v 5.001762 c 0,2.270067 1.82788,4.097424 4.09795,4.097424 2.27006,0 4.09742,-1.827357 4.09742,-4.097424 v -5.001762 c 0,-2.2700666 -1.82736,-4.0979406 -4.09742,-4.0979406 z m -0.40205,4.4116166 h 3.03186 c 0.21435,0 0.38706,0.172189 0.38706,0.38654 0,0.214348 -0.17271,0.387056 -0.38706,0.387056 h -3.03186 c -0.21435,0 -0.38705,-0.172708 -0.38705,-0.387056 0,-0.214351 0.1727,-0.38654 0.38705,-0.38654 z m 0.81649,1.4118 h 2.21537 c 0.21435,0 0.38706,0.172706 0.38706,0.387057 0,0.214348 -0.17271,0.386539 -0.38706,0.386539 h -2.21537 c -0.21435,0 -0.38654,-0.172191 -0.38654,-0.386539 0,-0.214351 0.17219,-0.387057 0.38654,-0.387057 z m 5.30097,0.413928 a 0.52916503,0.52916503 0 0 0 -0.54105,0.517281 c -0.007,0.362384 -0.008,0.726873 0.002,1.088306 0,1.412097 -0.17026,2.581692 -0.56482,3.513481 -0.39456,0.931788 -1.00006,1.640663 -1.96836,2.193148 a 0.52921795,0.52921795 0 0 0 -0.0196,0.01188 c -2.34906,1.487341 -5.84069,0.426266 -7.13703,-1.999878 -0.69491,-1.415587 -0.6896,-3.041925 -0.64028,-4.74648 a 0.52916503,0.52916503 0 0 0 -0.51366,-0.54467 0.52916503,0.52916503 0 0 0 -0.5451897,0.513664 c -0.0497,1.718253 -0.0879,3.549551 0.7503497,5.251876 a 0.52921795,0.52921795 0 0 0 0.008,0.01395 c 0.97851,1.841229 2.90608,3.022939 4.9258,3.235979 v 1.044897 h -1.61541 a 0.52916503,0.52916503 0 0 0 -0.52917,0.529684 0.52916503,0.52916503 0 0 0 0.52917,0.529166 h 4.28914 a 0.52916503,0.52916503 0 0 0 0.52917,-0.529166 0.52916503,0.52916503 0 0 0 -0.52917,-0.529684 h -1.6154 v -1.02216 c 0.92141,-0.06116 1.83114,-0.333712 2.64842,-0.848527 1.14347,-0.655543 1.93458,-1.57352 2.40812,-2.691825 0.47512,-1.122045 0.64647,-2.43067 0.64647,-3.925342 a 0.52916503,0.52916503 0 0 0 -0.002,-0.0083 0.52916503,0.52916503 0 0 0 0.002,-0.0078 c -0.0102,-0.340209 -0.007,-0.691128 0,-1.050581 a 0.52916503,0.52916503 0 0 0 -0.51728,-0.538986 z m -6.11746,0.939995 h 3.03186 c 0.21435,0 0.38706,0.172705 0.38706,0.387056 0,0.214351 -0.17271,0.387057 -0.38706,0.387057 h -3.03186 c -0.21435,0 -0.38705,-0.172706 -0.38705,-0.387057 0,-0.214351 0.1727,-0.387056 0.38705,-0.387056 z" />
  </g>
</svg>
