<?xml version="1.0" encoding="UTF-8" standalone="no"?>
<!-- Created with Inkscape (http://www.inkscape.org/) -->

<svg
   width="17.389645mm"
   height="17.389641mm"
   viewBox="0 0 17.389645 17.389641"
   version="1.1"
   id="svg1"
   xmlns="http://www.w3.org/2000/svg"
   xmlns:svg="http://www.w3.org/2000/svg">
  <defs
     id="defs1" />
  <g
     id="layer1"
     transform="translate(-63.475114,-7.124101)">
    <g
       id="g18"
       transform="translate(-1.7886828)">
      <circle
         style="opacity:1;fill:#00aa00;fill-opacity:1;stroke:none;stroke-width:1.05833;stroke-linecap:round;stroke-linejoin:round"
         id="path17"
         cx="73.958618"
         cy="15.818921"
         r="8.6948204" />
      <path
         id="path18"
         style="opacity:1;fill:#ffffff;stroke-width:0.642395;stroke-linecap:round;stroke-linejoin:round"
         d="m 73.959105,10.541261 c -1.377906,0 -2.487405,1.1095 -2.487405,2.487406 v 3.036014 c 0,1.377906 1.109499,2.487092 2.487405,2.487092 1.377906,0 2.487091,-1.109186 2.487091,-2.487092 v -3.036014 c 0,-1.377906 -1.109185,-2.487406 -2.487091,-2.487406 z m -0.244036,2.677804 h 1.840303 c 0.130109,0 0.23494,0.104516 0.23494,0.234625 0,0.130107 -0.104831,0.234939 -0.23494,0.234939 h -1.840303 c -0.130108,0 -0.234939,-0.104832 -0.234939,-0.234939 0,-0.130109 0.104831,-0.234625 0.234939,-0.234625 z m 0.495599,0.856947 h 1.344704 c 0.130109,0 0.23494,0.10483 0.23494,0.234939 0,0.130107 -0.104831,0.234625 -0.23494,0.234625 h -1.344704 c -0.130108,0 -0.234625,-0.104518 -0.234625,-0.234625 0,-0.130109 0.104517,-0.234939 0.234625,-0.234939 z m 3.21763,0.251249 a 0.32119735,0.32119735 0 0 0 -0.328413,0.313984 c -0.0044,0.219963 -0.0051,0.441204 0.0013,0.66059 0,0.857127 -0.103347,1.567059 -0.342842,2.132644 -0.239494,0.565585 -0.607024,0.995865 -1.19477,1.331217 a 0.32122947,0.32122947 0 0 0 -0.01192,0.0072 c -1.425853,0.9028 -3.545231,0.258739 -4.3321,-1.213904 -0.421799,-0.859245 -0.41858,-1.846415 -0.388638,-2.881061 a 0.32119735,0.32119735 0 0 0 -0.311788,-0.330609 0.32119735,0.32119735 0 0 0 -0.330922,0.311789 c -0.03019,1.04296 -0.05334,2.154538 0.455449,3.187831 a 0.32122947,0.32122947 0 0 0 0.0047,0.0085 c 0.593946,1.117606 1.763962,1.834891 2.989905,1.964204 v 0.634241 h -0.980533 a 0.32119735,0.32119735 0 0 0 -0.321199,0.321512 0.32119735,0.32119735 0 0 0 0.321199,0.321198 h 2.603463 a 0.32119735,0.32119735 0 0 0 0.321198,-0.321198 0.32119735,0.32119735 0 0 0 -0.321198,-0.321512 h -0.980533 v -0.62044 c 0.559283,-0.03712 1.11148,-0.202559 1.60756,-0.515047 0.694076,-0.397907 1.17427,-0.955109 1.461703,-1.633908 0.288396,-0.681069 0.392402,-1.47539 0.392402,-2.382639 a 0.32119735,0.32119735 0 0 0 -9.11e-4,-0.005 0.32119735,0.32119735 0 0 0 9.11e-4,-0.0047 c -0.0062,-0.206503 -0.0044,-0.419507 0,-0.637691 a 0.32119735,0.32119735 0 0 0 -0.313984,-0.327158 z m -3.713229,0.570567 h 1.840303 c 0.130109,0 0.23494,0.10483 0.23494,0.234939 0,0.130108 -0.104831,0.234939 -0.23494,0.234939 h -1.840303 c -0.130108,0 -0.234939,-0.104831 -0.234939,-0.234939 0,-0.130109 0.104831,-0.234939 0.234939,-0.234939 z" />
    </g>
  </g>
</svg>
