<?xml version="1.0" encoding="UTF-8" standalone="no"?>
<!-- Created with Inkscape (http://www.inkscape.org/) -->

<svg
   width="17.389635mm"
   height="17.389641mm"
   viewBox="0 0 17.389635 17.389641"
   version="1.1"
   id="svg1"
   xmlns="http://www.w3.org/2000/svg"
   xmlns:svg="http://www.w3.org/2000/svg">
  <defs
     id="defs1" />
  <g
     id="layer1"
     transform="translate(-85.190538,-7.124101)">
    <g
       id="g20"
       transform="matrix(0.76570051,0,0,0.76570051,28.509998,-16.26494)">
      <path
         id="path19"
         style="opacity:1;fill:#d40000;fill-opacity:1;stroke:none;stroke-width:1.05833;stroke-linecap:round;stroke-linejoin:round"
         d="m 85.379801,30.545939 c -6.271395,1.8e-5 -11.355361,5.083984 -11.355379,11.355379 1.8e-5,6.271395 5.083984,11.355362 11.355379,11.35538 6.271396,-1.8e-5 11.355362,-5.083984 11.35538,-11.35538 -1.8e-5,-6.271395 -5.083985,-11.355361 -11.35538,-11.355379 z" />
      <path
         id="rect19"
         style="opacity:1;fill:#ffffff;fill-opacity:1;stroke:none;stroke-width:1.22773;stroke-linecap:round;stroke-linejoin:round"
         d="m 82.347943,36.705946 c -0.886142,0 -1.599406,0.713264 -1.599406,1.599405 v 7.191934 c 0,0.886142 0.713264,1.599406 1.599406,1.599406 0.886141,0 1.600006,-0.713264 1.600006,-1.599406 v -7.191934 c 0,-0.886142 -0.713865,-1.599405 -1.600006,-1.599405 z m 6.063715,0 c -0.88614,0 -1.599406,0.713264 -1.599406,1.599405 v 7.191934 c 0,0.886142 0.713266,1.599406 1.599406,1.599406 0.886142,0 1.599408,-0.713264 1.599408,-1.599406 v -7.191934 c 0,-0.886142 -0.713266,-1.599405 -1.599408,-1.599405 z" />
    </g>
  </g>
</svg>
